SplineFontDB: 3.0
FontName: greextra
FullName: greextra
FamilyName: greextra
Weight: Medium
Copyright: greciliae font, adapted with fontforge by Elie Roux\nCopyright (C) 2007 Matthew Spencer\nwith Reserved Font Name Caeciliae\n\nThis Font Software is licensed under the SIL Open Font License, Version 1.1.\n\nThis license is available with a FAQ at: http://scripts.sil.org/OFL
UComments: "2007-4-12: Created." 
Version: 1.0
ItalicAngle: 0
UnderlinePosition: -204
UnderlineWidth: 102
Ascent: 800
Descent: 200
LayerCount: 2
Layer: 0 0 "Back"  1
Layer: 1 0 "Fore"  0
XUID: [1021 341 828717519 15204965]
OS2Version: 0
OS2_WeightWidthSlopeOnly: 0
OS2_UseTypoMetrics: 1
CreationTime: 1176402534
ModificationTime: 1280932446
OS2TypoAscent: 0
OS2TypoAOffset: 1
OS2TypoDescent: 0
OS2TypoDOffset: 1
OS2TypoLinegap: 0
OS2WinAscent: 0
OS2WinAOffset: 1
OS2WinDescent: 0
OS2WinDOffset: 1
HheadAscent: 0
HheadAOffset: 1
HheadDescent: 0
HheadDOffset: 1
OS2Vendor: 'PfEd'
DEI: 91125
Encoding: Custom
UnicodeInterp: none
NameList: Adobe Glyph List
DisplaySize: -96
AntiAlias: 1
FitToEm: 1
WinInfo: 0 8 2
TeXData: 1 0 0 346030 173015 115343 0 1048576 115343 783286 444596 497025 792723 393216 433062 380633 303038 157286 324010 404750 52429 2506097 1059062 262144
BeginChars: 34 34

StartChar: MedicaeaFlat
Encoding: 0 57344 0
Width: 144
VWidth: 869
Flags: W
HStem: 152.8 26.3506<42.7186 103.075>
VStem: 11.7002 10.2002<-37.6826 144.383 150.25 290.986> 101.8 42.5<68.3061 144.169>
LayerCount: 2
Fore
SplineSet
21.0508 -48.6504 m 5
 20.2012 -54.5996 18.5 -58 16.7998 -58 c 4
 12.5498 -58 11.7002 -40.1504 11.7002 -35.0498 c 6
 11.7002 267.2 l 6
 11.7002 272.3 12.5498 291 16.7998 291 c 4
 21.0498 291 21.9004 272.3 21.9004 267.2 c 6
 21.9004 150.25 l 5
 40.5996 168.1 64.4004 179.15 86.5 179.15 c 4
 119.65 179.15 144.3 151.95 144.3 123.9 c 4
 144.3 78.8496 86.5 26.1504 59.2998 -28.25 c 4
 56.75 -33.3496 32.9502 -48.6504 21.0508 -48.6504 c 5
21.9004 142.6 m 5
 22.0283 -37.6826 l 6
 22.0283 -38.1641 22.3154 -37.5166 22.6826 -37.0615 c 4
 50.7744 12.6826 101.8 61.3926 101.8 103.5 c 4
 101.8 126.45 82.25 152.8 56.75 152.8 c 4
 42.2998 152.8 30.1172 144.867 21.9004 142.6 c 5
EndSplineSet
EndChar

StartChar: HufnagelCustosUpShort
Encoding: 1 57345 1
Width: 165
VWidth: 869
Flags: W
HStem: -42.3496 324.699
VStem: 25.4639 287.3
LayerCount: 2
Fore
SplineSet
312.764 282.35 m 4
 314.464 282.35 314.464 282.35 314.464 279.8 c 4
 314.464 267.9 294.063 236.45 283.014 220.3 c 6
 134.264 7.7998 l 6
 124.063 -7.5 96.8643 -42.3496 87.5137 -42.3496 c 4
 86.6641 -42.3496 85.8135 -42.3496 85.8135 -41.5 c 6
 25.4639 80.9004 l 6
 18.6641 95.3496 98.5635 205 105.364 191.4 c 6
 159.764 80.9004 l 5
 266.014 232.2 l 6
 276.214 247.5 303.414 282.35 312.764 282.35 c 4
EndSplineSet
EndChar

StartChar: HufnagelCustosUpLong
Encoding: 2 57346 2
Width: 172
VWidth: 877
Flags: W
LayerCount: 2
Fore
SplineSet
393.313 385.975 m 4
 395.014 385.975 395.864 385.975 395.864 383.425 c 4
 395.864 371.525 375.464 340.075 364.414 323.925 c 6
 140.864 5.1748 l 6
 130.664 -10.125 103.464 -44.9746 94.1143 -44.9746 c 4
 93.2637 -44.9746 92.4141 -44.9746 92.4141 -44.125 c 6
 32.0635 78.2754 l 6
 25.2637 92.7246 105.164 202.375 111.964 188.775 c 6
 166.364 78.2754 l 5
 346.563 335.825 l 6
 356.764 351.125 383.964 385.975 393.313 385.975 c 4
EndSplineSet
EndChar

StartChar: HufnagelCustosUpMedium
Encoding: 3 57347 3
Width: 169
VWidth: 872
Flags: W
VStem: 28.7637 324.7
LayerCount: 2
Fore
SplineSet
353.464 325.625 m 4
 355.164 325.625 355.164 324.775 355.164 322.225 c 4
 355.164 310.325 334.764 279.725 323.714 263.575 c 6
 137.563 -2.47461 l 6
 127.364 -17.7754 100.164 -52.625 90.8135 -52.625 c 4
 89.9639 -52.625 89.1143 -52.625 89.1143 -51.7754 c 6
 28.7637 70.625 l 6
 21.9639 85.0752 101.864 194.725 108.664 181.125 c 6
 163.063 70.625 l 5
 306.714 275.475 l 6
 316.914 290.775 344.114 325.625 353.464 325.625 c 4
EndSplineSet
EndChar

StartChar: HufnagelCustosDownShort
Encoding: 4 57348 4
Width: 165
VWidth: 852
Flags: W
HStem: -144.35 324.699
VStem: 25.4551 289
LayerCount: 2
Fore
SplineSet
314.455 -141.8 m 4
 314.455 -143.5 314.455 -144.35 312.756 -144.35 c 4
 303.405 -144.35 276.205 -109.5 266.006 -94.2002 c 6
 159.756 57.0996 l 5
 105.355 -53.4004 l 6
 99.4053 -66.1504 17.8057 40.9502 25.4551 57.0996 c 6
 85.8057 179.5 l 6
 85.8057 180.35 86.6553 180.35 87.5059 180.35 c 4
 96.8555 180.35 124.056 145.5 134.256 130.2 c 6
 283.006 -82.2998 l 6
 294.056 -98.4502 314.455 -129.9 314.455 -141.8 c 4
EndSplineSet
EndChar

StartChar: HufnagelCustosDownLong
Encoding: 5 57349 5
Width: 172
VWidth: 843
Flags: W
LayerCount: 2
Fore
SplineSet
395.855 -255.425 m 4
 395.855 -257.125 395.006 -257.975 393.306 -257.975 c 4
 383.955 -257.975 356.756 -223.125 346.556 -207.825 c 6
 166.355 49.7246 l 5
 111.955 -60.7754 l 6
 106.006 -73.5254 24.4053 33.5752 32.0557 49.7246 c 6
 92.4053 172.125 l 6
 92.4053 172.975 93.2559 172.975 94.1055 172.975 c 4
 103.455 172.975 130.655 138.125 140.855 122.825 c 6
 364.405 -195.925 l 6
 375.455 -212.075 395.855 -243.525 395.855 -255.425 c 4
EndSplineSet
EndChar

StartChar: HufnagelCustosDownMedium
Encoding: 6 57350 6
Width: 169
VWidth: 847
Flags: W
VStem: 28.7559 326.399
LayerCount: 2
Fore
SplineSet
355.155 -200.225 m 4
 355.155 -201.925 355.155 -203.625 353.455 -203.625 c 4
 344.105 -203.625 316.905 -168.775 306.705 -153.475 c 6
 163.056 51.375 l 5
 108.655 -59.125 l 6
 102.705 -71.875 21.1055 35.2246 28.7559 51.375 c 6
 89.1055 173.775 l 6
 89.1055 174.625 89.9551 174.625 90.8057 174.625 c 4
 100.155 174.625 127.355 139.775 137.556 124.475 c 6
 323.705 -141.575 l 6
 334.756 -157.725 355.155 -188.325 355.155 -200.225 c 4
EndSplineSet
EndChar

StartChar: MedicaeaCustosUpShort
Encoding: 7 57351 7
Width: 63
VWidth: 858
Flags: W
HStem: -55.9004 329.801<51.0771 60.7129>
VStem: 5.1748 58.6504<-55.9004 178.632> 51.0752 12.75<178.7 273.878>
LayerCount: 2
Fore
SplineSet
11.9746 -55.9004 m 6xc0
 6.875 -55.9004 5.1748 37.5996 5.1748 61.4004 c 4xc0
 5.1748 85.2002 6.875 178.7 11.9746 178.7 c 6
 51.0752 178.7 l 5
 51.0752 267.1 l 6
 51.0752 270.5 53.625 273.9 57.0254 273.9 c 4
 60.4248 273.9 63.8252 270.5 63.8252 267.1 c 6xa0
 63.8252 61.4004 l 6
 63.8252 37.5996 62.125 -55.9004 57.0254 -55.9004 c 6
 11.9746 -55.9004 l 6xc0
EndSplineSet
EndChar

StartChar: MedicaeaCustosUpLong
Encoding: 8 57352 8
Width: 63
VWidth: 868
Flags: W
VStem: 51.0752 12.75<188.075 389.503>
LayerCount: 2
Fore
SplineSet
11.9746 -46.5254 m 6
 6.875 -46.5254 5.1748 46.9746 5.1748 70.7754 c 4
 5.1748 94.5752 6.875 188.075 11.9746 188.075 c 6
 51.0752 188.075 l 5
 51.0752 382.725 l 6
 51.0752 386.125 53.625 389.525 57.0254 389.525 c 4
 60.4248 389.525 63.8252 386.125 63.8252 382.725 c 6
 63.8252 70.7754 l 6
 63.8252 46.9746 62.125 -46.5254 57.0254 -46.5254 c 6
 11.9746 -46.5254 l 6
EndSplineSet
EndChar

StartChar: MedicaeaCustosUpMedium
Encoding: 9 57353 9
Width: 63
VWidth: 863
Flags: W
VStem: 51.0752 12.75<184.35 332.233>
LayerCount: 2
Fore
SplineSet
11.9746 -50.25 m 6
 6.875 -50.25 5.1748 43.25 5.1748 67.0498 c 4
 5.1748 90.8496 6.875 184.35 11.9746 184.35 c 6
 51.0752 184.35 l 5
 51.0752 326.3 l 6
 51.0752 329.7 53.625 332.25 57.0254 332.25 c 4
 60.4248 332.25 63.8252 329.7 63.8252 326.3 c 6
 63.8252 67.0498 l 6
 63.8252 43.25 62.125 -50.25 57.0254 -50.25 c 6
 11.9746 -50.25 l 6
EndSplineSet
EndChar

StartChar: MedicaeaCustosDownShort
Encoding: 10 57354 10
Width: 63
VWidth: 841
Flags: W
HStem: -167.9 329.801<51.0771 60.7129>
VStem: 5.1748 58.6504<-72.7002 161.9> 51.0752 12.75<-167.878 -72.7002>
LayerCount: 2
Fore
SplineSet
57.0254 161.9 m 6xc0
 62.125 161.9 63.8252 68.4004 63.8252 44.5996 c 6xc0
 63.8252 -161.1 l 6
 63.8252 -164.5 60.4248 -167.9 57.0254 -167.9 c 4
 53.625 -167.9 51.0752 -164.5 51.0752 -161.1 c 6
 51.0752 -72.7002 l 5xa0
 11.9746 -72.7002 l 6
 6.875 -72.7002 5.1748 20.7998 5.1748 44.5996 c 4
 5.1748 68.4004 6.875 161.9 11.9746 161.9 c 6
 57.0254 161.9 l 6xc0
EndSplineSet
EndChar

StartChar: MedicaeaCustosDownLong
Encoding: 11 57355 11
Width: 63
VWidth: 892
Flags: W
VStem: 51.0752 12.75<-278.503 -77.0752>
LayerCount: 2
Fore
SplineSet
57.0254 157.525 m 6
 62.125 157.525 63.8252 64.0254 63.8252 40.2246 c 6
 63.8252 -271.725 l 6
 63.8252 -275.125 60.4248 -278.525 57.0254 -278.525 c 4
 53.625 -278.525 51.0752 -275.125 51.0752 -271.725 c 6
 51.0752 -77.0752 l 5
 11.9746 -77.0752 l 6
 6.875 -77.0752 5.1748 16.4248 5.1748 40.2246 c 4
 5.1748 64.0254 6.875 157.525 11.9746 157.525 c 6
 57.0254 157.525 l 6
EndSplineSet
EndChar

StartChar: MedicaeaCustosDownMedium
Encoding: 12 57356 12
Width: 63
VWidth: 896
Flags: W
VStem: 51.0752 12.75<-214.233 -66.3496>
LayerCount: 2
Fore
SplineSet
57.0254 168.25 m 6
 62.125 168.25 63.8252 74.75 63.8252 50.9502 c 6
 63.8252 -208.3 l 6
 63.8252 -211.7 60.4248 -214.25 57.0254 -214.25 c 4
 53.625 -214.25 51.0752 -211.7 51.0752 -208.3 c 6
 51.0752 -66.3496 l 5
 11.9746 -66.3496 l 6
 6.875 -66.3496 5.1748 27.1504 5.1748 50.9502 c 4
 5.1748 74.75 6.875 168.25 11.9746 168.25 c 6
 57.0254 168.25 l 6
EndSplineSet
EndChar

StartChar: MensuralCustosUpShort
Encoding: 13 57357 13
Width: 343
VWidth: 1087
Flags: W
LayerCount: 2
Fore
SplineSet
7.03027 -24.4102 m 4
 6.00977 -24.4102 -0.0498047 -23.3906 -0.0498047 -19.3096 c 4
 -0.0498047 -9.10938 14.1699 11.29 28.4502 31.6904 c 6
 95.7695 125.53 l 6
 108.01 141.85 130.45 168.369 136.569 160.21 c 6
 196.75 78.6094 l 5
 230.41 125.53 l 6
 235.51 132.67 264.069 170.41 271.21 160.21 c 6
 330.369 78.6094 l 5
 474.19 283.631 l 6
 489.49 305.05 506.83 323.41 514.99 323.41 c 4
 516.01 323.41 518.05 322.391 518.05 318.31 c 4
 518.05 308.109 506.83 286.69 494.59 269.35 c 6
 316.09 14.3496 l 6
 300.79 -7.06934 284.47 -24.4102 276.31 -24.4102 c 4
 274.27 -24.4102 273.25 -23.3906 273.25 -23.3906 c 5
 214.09 58.21 l 5
 179.41 11.29 l 6
 165.131 -9.10938 149.83 -24.4102 141.67 -24.4102 c 4
 139.631 -24.4102 138.609 -23.3906 138.609 -23.3906 c 5
 79.4502 58.21 l 5
 44.7695 11.29 l 6
 30.4902 -9.10938 15.1904 -24.4102 7.03027 -24.4102 c 4
EndSplineSet
EndChar

StartChar: MensuralCustosUpLong
Encoding: 14 57358 14
Width: 356
VWidth: 1086
Flags: W
HStem: -25.6602 21G<3.64062 8.22998 137.77 142.87 272.411 277.51> 429.66 20G<596.77 601.359>
LayerCount: 2
Fore
SplineSet
4.15039 -25.6602 m 0
 3.13086 -25.6602 0.0693359 -24.6406 0.0693359 -20.5596 c 0
 0.0693359 -10.3594 11.29 10.04 25.5693 30.4404 c 2
 92.8906 124.28 l 2
 105.131 140.6 127.569 167.119 133.69 158.96 c 2
 193.869 77.3594 l 1
 227.53 124.28 l 2
 232.631 131.42 261.19 169.16 268.33 158.96 c 2
 327.49 77.3594 l 1
 561.069 409.881 l 2
 576.369 431.3 592.69 449.66 600.85 449.66 c 0
 601.869 449.66 604.931 448.641 604.931 444.56 c 0
 604.931 434.359 593.71 412.94 581.47 395.6 c 2
 313.21 13.0996 l 2
 297.91 -8.31934 281.59 -25.6602 273.431 -25.6602 c 0
 271.391 -25.6602 270.369 -24.6406 270.369 -24.6406 c 1
 211.21 56.96 l 1
 176.53 10.04 l 2
 162.25 -10.3594 146.95 -25.6602 138.79 -25.6602 c 0
 136.75 -25.6602 135.73 -24.6406 135.73 -24.6406 c 1
 76.5693 56.96 l 1
 41.8906 10.04 l 2
 27.6094 -10.3594 12.3096 -25.6602 4.15039 -25.6602 c 0
EndSplineSet
EndChar

StartChar: MensuralCustosUpMedium
Encoding: 15 57359 15
Width: 354
VWidth: 1087
Flags: W
HStem: -25.0303 21G<3.07959 7.66992 137.21 142.311 271.85 276.95>
LayerCount: 2
Fore
SplineSet
3.58984 -25.0303 m 4
 2.56934 -25.0303 -0.490234 -24.0098 -0.490234 -19.9307 c 4
 -0.490234 -9.73047 10.7305 10.6699 25.0098 31.0693 c 6
 92.3301 124.91 l 6
 104.569 141.23 127.01 167.75 133.131 159.59 c 6
 193.31 77.9902 l 5
 226.97 124.91 l 6
 232.069 132.05 260.631 169.79 267.77 159.59 c 6
 326.931 77.9902 l 5
 515.631 347.27 l 6
 530.931 368.69 548.27 386.03 556.431 386.03 c 4
 557.45 386.03 559.49 385.01 559.49 380.931 c 4
 559.49 370.73 548.27 350.33 536.03 332.99 c 6
 312.65 13.7305 l 6
 297.35 -7.69043 281.03 -25.0303 272.869 -25.0303 c 4
 270.83 -25.0303 269.81 -24.0098 269.81 -24.0098 c 5
 210.65 57.5898 l 5
 175.97 10.6699 l 6
 161.69 -9.73047 146.391 -25.0303 138.23 -25.0303 c 4
 136.19 -25.0303 135.17 -24.0098 135.17 -24.0098 c 5
 76.0098 57.5898 l 5
 41.3301 10.6699 l 6
 27.0498 -9.73047 11.75 -25.0303 3.58984 -25.0303 c 4
EndSplineSet
EndChar

StartChar: MensuralCustosDownShort
Encoding: 16 57360 16
Width: 337
VWidth: 1090
Flags: W
LayerCount: 2
Fore
SplineSet
515.05 -111.31 m 4
 515.05 -115.391 513.01 -116.41 511.99 -116.41 c 4
 503.83 -116.41 486.49 -98.0498 471.19 -76.6309 c 6
 327.369 128.391 l 5
 268.21 46.79 l 6
 262.09 38.6309 236.59 68.21 227.41 81.4697 c 6
 193.75 128.391 l 5
 133.569 46.79 l 6
 127.45 38.6309 101.95 68.21 92.7695 81.4697 c 6
 23.4102 178.369 l 6
 11.1699 195.71 -0.0498047 216.109 -0.0498047 226.31 c 4
 -0.0498047 230.391 3.00977 231.41 4.03027 231.41 c 4
 12.1904 231.41 27.4902 216.109 41.7695 195.71 c 6
 76.4502 148.79 l 5
 135.609 230.391 l 5
 135.609 230.391 136.631 231.41 138.67 231.41 c 4
 146.83 231.41 162.131 216.109 176.41 195.71 c 6
 211.09 148.79 l 5
 270.25 230.391 l 5
 270.25 230.391 271.27 231.41 273.31 231.41 c 4
 281.47 231.41 297.79 214.069 313.09 192.65 c 6
 491.59 -62.3496 l 6
 503.83 -79.6904 515.05 -101.109 515.05 -111.31 c 4
EndSplineSet
EndChar

StartChar: MensuralCustosDownLong
Encoding: 17 57361 17
Width: 336
VWidth: 1092
Flags: W
LayerCount: 2
Fore
SplineSet
604.931 -304.56 m 4
 604.931 -308.641 601.869 -309.66 600.85 -309.66 c 4
 592.69 -309.66 576.369 -291.3 561.069 -269.881 c 6
 327.49 62.6406 l 5
 268.33 -18.96 l 6
 262.21 -27.1191 236.71 2.45996 227.53 15.7197 c 6
 193.869 62.6406 l 5
 133.69 -18.96 l 6
 127.569 -27.1191 102.069 2.45996 92.8906 15.7197 c 6
 23.5303 112.619 l 6
 11.29 129.96 0.0693359 150.359 0.0693359 160.56 c 4
 0.0693359 164.641 3.13086 165.66 4.15039 165.66 c 4
 12.3096 165.66 27.6094 150.359 41.8906 129.96 c 6
 76.5693 83.04 l 5
 135.73 164.641 l 5
 135.73 164.641 136.75 165.66 138.79 165.66 c 4
 146.95 165.66 162.25 150.359 176.53 129.96 c 6
 211.21 83.04 l 5
 270.369 164.641 l 5
 270.369 164.641 271.391 165.66 273.431 165.66 c 4
 281.59 165.66 297.91 148.319 313.21 126.9 c 6
 581.47 -255.6 l 6
 593.71 -272.94 604.931 -294.359 604.931 -304.56 c 4
EndSplineSet
EndChar

StartChar: MensuralCustosDownMedium
Encoding: 18 57362 18
Width: 336
VWidth: 1091
Flags: W
LayerCount: 2
Fore
SplineSet
559.49 -240.931 m 4
 559.49 -245.01 557.45 -246.03 556.431 -246.03 c 4
 548.27 -246.03 530.931 -228.69 515.631 -207.27 c 6
 326.931 62.0098 l 5
 267.77 -19.5898 l 6
 261.65 -27.75 236.15 1.83008 226.97 15.0898 c 6
 193.31 62.0098 l 5
 133.131 -19.5898 l 6
 127.01 -27.75 101.51 1.83008 92.3301 15.0898 c 6
 22.9697 111.99 l 6
 10.7305 129.33 -0.490234 149.73 -0.490234 159.931 c 4
 -0.490234 164.01 2.56934 165.03 3.58984 165.03 c 4
 11.75 165.03 27.0498 149.73 41.3301 129.33 c 6
 76.0098 82.4102 l 5
 135.17 164.01 l 5
 135.17 164.01 136.19 165.03 138.23 165.03 c 4
 146.391 165.03 161.69 149.73 175.97 129.33 c 6
 210.65 82.4102 l 5
 269.81 164.01 l 5
 269.81 164.01 270.83 165.03 272.869 165.03 c 4
 281.03 165.03 297.35 147.69 312.65 126.27 c 6
 536.03 -192.99 l 6
 548.27 -210.33 559.49 -230.73 559.49 -240.931 c 4
EndSplineSet
EndChar

StartChar: MensuralFlat
Encoding: 19 57363 19
Width: 110
VWidth: 947
Flags: W
HStem: -4.4502 22.9502<20.3729 75.94>
VStem: -2.125 22.0996<23.4387 126.978 142.6 463.392> 98.1748 22.9502<40.6139 100.59>
LayerCount: 2
Fore
SplineSet
16.5752 466.45 m 4
 19.125 466.45 19.9746 465.6 19.9746 463.05 c 6
 19.9746 142.6 l 5
 82.0254 166.4 121.125 123.9 121.125 80.5498 c 4
 121.125 34.6504 78.625 -4.4502 37.8252 -4.4502 c 4
 17.4248 -4.4502 -2.125 6.59961 -2.125 11.7002 c 6
 -2.125 447.75 l 6
 -2.125 455.4 9.77539 466.45 16.5752 466.45 c 4
36.9746 127.3 m 4
 26.7754 127.3 21.6748 124.75 19.9746 123.9 c 5
 19.9746 29.5498 l 5
 28.4746 23.5996 40.375 18.5 53.9746 18.5 c 4
 82.0254 18.5 98.1748 37.2002 98.1748 64.4004 c 4
 98.1748 95.8496 74.375 127.3 36.9746 127.3 c 4
EndSplineSet
EndChar

StartChar: HufnagelFlat
Encoding: 20 57364 20
Width: 136
VWidth: 948
Flags: W
VStem: -9.3252 36.5498<58.5957 102.796 123.196 460.34>
LayerCount: 2
Fore
SplineSet
56.125 117.246 m 5
 27.2246 102.796 l 5
 27.2246 58.5957 l 5
 80.7754 26.2959 l 5
 112.225 33.9463 102.875 98.5459 56.125 117.246 c 5
26.375 473.396 m 4
 27.2246 473.396 28.0752 472.546 28.0752 471.696 c 6
 27.2246 123.196 l 5
 87.5752 153.796 l 6
 96.0752 158.046 134.325 132.546 134.325 91.7461 c 4
 134.325 36.4961 59.5254 -11.1035 44.2246 -9.4043 c 5
 -8.47461 22.0459 l 5
 -9.3252 22.8965 l 5
 -9.3252 437.696 l 6
 -9.3252 444.496 20.4248 473.396 26.375 473.396 c 4
EndSplineSet
EndChar

StartChar: MedicaeaCClef
Encoding: 21 57365 21
Width: 308
VWidth: 920
Flags: W
VStem: -0.147461 30.8301<-240.421 59.2197 213.367 367.515 521.662 684.421>
LayerCount: 2
Fore
SplineSet
308.147 -9.83789 m 0
 308.147 -27.1016 304.448 -86.2949 292.116 -86.2949 c 2
 290.883 -86.2949 l 1
 30.6826 59.2197 l 1
 30.6826 -224.411 l 2
 30.6826 -233.043 24.5156 -240.442 15.8838 -240.442 c 4
 7.25195 -240.442 -0.147461 -233.043 -0.147461 -224.411 c 2
 -0.147461 668.411 l 2
 -0.147461 677.043 7.25195 684.442 15.8838 684.442 c 0
 24.5156 684.442 30.6826 677.043 30.6826 668.411 c 2
 30.6826 521.662 l 1
 294.584 376.147 l 2
 303.214 371.214 308.147 334.22 308.147 298.457 c 0
 308.147 281.193 304.448 222 292.116 222 c 2
 290.883 222 l 1
 30.6826 367.515 l 1
 30.6826 213.367 l 1
 294.584 67.8525 l 2
 303.214 62.9189 308.147 25.9248 308.147 -9.83789 c 0
EndSplineSet
EndChar

StartChar: MedicaeaCClefChange
Encoding: 22 57366 22
Width: 308
VWidth: 920
Flags: W
VStem: -0.147461 30.8301<-240.421 59.2197 213.367 367.515 521.662 684.421>
LayerCount: 2
Fore
SplineSet
308.147 -9.83789 m 4
 308.147 -27.1016 304.448 -86.2949 292.116 -86.2949 c 6
 290.883 -86.2949 l 5
 30.6826 59.2197 l 5
 30.6826 -224.411 l 6
 30.6826 -233.043 24.5156 -240.442 15.8838 -240.442 c 4
 7.25195 -240.442 -0.147461 -233.043 -0.147461 -224.411 c 6
 -0.147461 668.411 l 6
 -0.147461 677.043 7.25195 684.442 15.8838 684.442 c 4
 24.5156 684.442 30.6826 677.043 30.6826 668.411 c 6
 30.6826 521.662 l 5
 294.584 376.147 l 6
 303.214 371.214 308.147 334.22 308.147 298.457 c 4
 308.147 281.193 304.448 222 292.116 222 c 6
 290.883 222 l 5
 30.6826 367.515 l 5
 30.6826 213.367 l 5
 294.584 67.8525 l 6
 303.214 62.9189 308.147 25.9248 308.147 -9.83789 c 4
EndSplineSet
EndChar

StartChar: MedicaeaFClef
Encoding: 23 57367 23
Width: 523
VWidth: 920
Flags: W
VStem: 106.821 30.8125<-226.166 81.9375> 215.281 30.8125<-226.166 73.3096 227.372 381.435 535.497 698.166>
LayerCount: 2
Fore
SplineSet
523.406 4.29004 m 4
 523.406 -12.9648 519.709 -72.125 507.384 -72.125 c 6
 506.15 -72.125 l 5
 246.094 73.3096 l 5
 246.094 -210.165 l 6
 246.094 -218.793 239.932 -226.188 231.304 -226.188 c 4
 222.676 -226.188 215.281 -218.793 215.281 -210.165 c 6
 215.281 682.165 l 6
 215.281 690.793 222.676 698.188 231.304 698.188 c 4
 239.932 698.188 246.094 690.793 246.094 682.165 c 6
 246.094 535.497 l 5
 509.85 390.062 l 6
 518.476 385.132 523.406 348.157 523.406 312.415 c 4
 523.406 295.16 519.709 236 507.384 236 c 6
 506.15 236 l 5
 246.094 381.435 l 5
 246.094 227.372 l 5
 509.85 81.9375 l 6
 518.476 77.0068 523.406 40.0322 523.406 4.29004 c 4
122.844 390.062 m 6
 135.169 390.062 137.634 268.045 137.634 236 c 6
 137.634 -210.165 l 6
 137.634 -218.793 131.472 -226.188 122.844 -226.188 c 4
 114.216 -226.188 106.821 -218.793 106.821 -210.165 c 6
 106.821 81.9375 l 5
 15.6162 81.9375 l 6
 3.29102 81.9375 -0.40625 203.955 -0.40625 236 c 4
 -0.40625 268.045 3.29102 390.062 15.6162 390.062 c 6
 122.844 390.062 l 6
EndSplineSet
EndChar

StartChar: MedicaeaFClefChange
Encoding: 24 57368 24
Width: 523
VWidth: 920
Flags: W
VStem: 74.8252 21.25<-85.7352 126.75> 149.625 21.25<-85.7352 120.8 227.05 333.3 439.55 551.735>
LayerCount: 2
Fore
SplineSet
523.406 4.29004 m 4
 523.406 -12.9648 519.709 -72.125 507.384 -72.125 c 6
 506.15 -72.125 l 5
 246.094 73.3096 l 5
 246.094 -210.165 l 6
 246.094 -218.793 239.932 -226.188 231.304 -226.188 c 4
 222.676 -226.188 215.281 -218.793 215.281 -210.165 c 6
 215.281 682.165 l 6
 215.281 690.793 222.676 698.188 231.304 698.188 c 4
 239.932 698.188 246.094 690.793 246.094 682.165 c 6
 246.094 535.497 l 5
 509.85 390.062 l 6
 518.476 385.132 523.406 348.157 523.406 312.415 c 4
 523.406 295.16 519.709 236 507.384 236 c 6
 506.15 236 l 5
 246.094 381.435 l 5
 246.094 227.372 l 5
 509.85 81.9375 l 6
 518.476 77.0068 523.406 40.0322 523.406 4.29004 c 4
122.844 390.062 m 6
 135.169 390.062 137.634 268.045 137.634 236 c 6
 137.634 -210.165 l 6
 137.634 -218.793 131.472 -226.188 122.844 -226.188 c 4
 114.216 -226.188 106.821 -218.793 106.821 -210.165 c 6
 106.821 81.9375 l 5
 15.6162 81.9375 l 6
 3.29102 81.9375 -0.40625 203.955 -0.40625 236 c 4
 -0.40625 268.045 3.29102 390.062 15.6162 390.062 c 6
 122.844 390.062 l 6
EndSplineSet
EndChar

StartChar: HufnagelCClef
Encoding: 25 57369 25
Width: 247
VWidth: 920
Flags: W
HStem: 279.45 115.6<112.569 188.297>
VStem: -0.174805 98.5996<171.5 286.987>
LayerCount: 2
Fore
SplineSet
247.175 361.05 m 4
 247.175 344.9 170.675 281.15 151.975 279.45 c 4
 130.725 276.9 112.875 282 98.4248 287.95 c 5
 98.4248 171.5 l 5
 140.075 150.25 l 6
 151.125 144.3 66.9746 66.9502 44.875 66.9502 c 4
 44.0254 66.9502 44.0254 67.7998 43.1748 67.7998 c 6
 0.674805 89.0498 l 6
 -0.174805 89.0498 -0.174805 89.9004 -0.174805 90.75 c 6
 -0.174805 282 l 6
 -0.174805 296.45 61.875 348.3 85.6748 360.2 c 6
 149.425 391.65 l 6
 153.675 394.2 157.075 395.05 159.625 395.05 c 4
 163.025 395.05 190.225 357.65 243.775 363.6 c 4
 246.325 363.6 247.175 362.75 247.175 361.05 c 4
EndSplineSet
EndChar

StartChar: HufnagelCClefChange
Encoding: 26 57376 26
Width: 197
VWidth: 920
Flags: W
HStem: 270.1 91.8008<81.1504 157.094>
VStem: 0.400391 78.1992<183.4 275.426>
LayerCount: 2
Fore
SplineSet
197.6 334.7 m 0
 197.6 321.95 136.4 271.8 121.95 270.1 c 0
 104.95 268.4 90.5 270.95 78.5996 276.05 c 1
 78.5996 183.4 l 1
 111.75 166.4 l 2
 121.1 161.3 51.4004 100.1 36.0996 100.1 c 2
 35.25 100.1 l 1
 1.25 117.1 l 2
 0.400391 117.1 0.400391 117.95 0.400391 118.8 c 2
 0.400391 271.8 l 2
 0.400391 282 47.1504 322.8 68.4004 333.85 c 2
 119.4 359.35 l 2
 122.8 361.05 126.2 361.9 127.9 361.9 c 0
 132.15 361.9 151.7 332.15 195.05 336.4 c 0
 197.6 336.4 197.6 335.55 197.6 334.7 c 0
EndSplineSet
EndChar

StartChar: HufnagelFClef
Encoding: 27 57377 27
Width: 249
VWidth: 915
Flags: W
HStem: 317.45 115.6<113.565 187.426>
VStem: -0.174805 98.5996<-12.7828 166.15 244.35 324.965>
LayerCount: 2
Fore
SplineSet
2.375 -65.0498 m 0
 0.674805 -65.0498 -0.174805 -64.2002 -0.174805 -62.5 c 2
 -0.174805 320 l 2
 -0.174805 334.45 61.875 385.45 85.6748 397.35 c 2
 149.425 429.65 l 2
 153.675 432.2 157.075 433.05 159.625 433.05 c 0
 163.025 433.05 190.225 394.8 243.775 400.75 c 0
 246.325 400.75 247.175 399.9 247.175 398.2 c 0
 247.175 382.9 173.225 320 151.975 317.45 c 0
 130.725 314.9 112.875 320 98.4248 325.95 c 1
 98.4248 244.35 l 1
 149.425 269.85 l 2
 173.225 281.75 176.625 235 243.775 241.8 c 0
 246.325 241.8 247.175 240.95 247.175 239.25 c 0
 247.175 223.95 173.225 160.2 151.975 157.65 c 0
 130.725 155.1 112.875 160.2 98.4248 166.15 c 1
 98.4248 15.7002 l 2
 98.4248 1.25 21.0752 -65.0498 2.375 -65.0498 c 0
EndSplineSet
EndChar

StartChar: HufnagelFClefChange
Encoding: 28 57378 28
Width: 198
VWidth: 916
Flags: W
HStem: 298.1 91.8008<81.1504 156.566>
VStem: 0.400391 78.1992<30.6571 176.55 239.45 303.426>
LayerCount: 2
Fore
SplineSet
2.09961 -7.90039 m 4
 0.400391 -7.90039 0.400391 -7.0498 0.400391 -6.2002 c 6
 0.400391 299.8 l 6
 0.400391 310 47.1504 350.8 68.4004 361.85 c 6
 119.4 387.35 l 6
 122.8 389.05 126.2 389.9 127.9 389.9 c 4
 132.15 389.9 151.7 360.15 195.05 364.4 c 4
 197.6 364.4 197.6 363.55 197.6 362.7 c 4
 197.6 351.65 138.95 299.8 121.95 298.1 c 4
 104.95 296.4 90.5 298.95 78.5996 304.05 c 5
 78.5996 239.45 l 5
 119.4 259.85 l 6
 138.1 269.2 141.5 230.95 195.05 236.9 c 4
 197.6 236.9 197.6 236.05 197.6 235.2 c 4
 197.6 224.15 138.95 172.3 121.95 170.6 c 4
 104.95 168.9 90.5 171.45 78.5996 176.55 c 5
 78.5996 56.7002 l 6
 78.5996 43.9502 15.7002 -7.90039 2.09961 -7.90039 c 4
EndSplineSet
EndChar

StartChar: HugnagelCFClef
Encoding: 29 57379 29
Width: 263
VWidth: 873
Flags: W
HStem: 284.675 115.601<113.569 189.297>
VStem: 0.825195 98.5996<-417.008 -238.075 -159.875 -79.2594 176.725 292.211>
LayerCount: 2
Fore
SplineSet
3.375 -469.275 m 4
 1.6748 -469.275 0.825195 -468.425 0.825195 -466.725 c 6
 0.825195 -84.2246 l 6
 0.825195 -69.7754 62.875 -18.7754 86.6748 -6.875 c 6
 150.425 25.4248 l 6
 174.225 37.3252 177.625 -10.2754 244.775 -3.47461 c 4
 247.325 -3.47461 248.175 -4.3252 248.175 -6.02539 c 4
 248.175 -21.3252 174.225 -84.2246 152.975 -86.7754 c 4
 131.725 -89.3252 113.875 -84.2246 99.4248 -78.2754 c 5
 99.4248 -159.875 l 5
 150.425 -134.375 l 6
 174.225 -122.475 177.625 -169.225 244.775 -162.425 c 4
 247.325 -162.425 248.175 -163.275 248.175 -164.975 c 4
 248.175 -180.275 174.225 -244.025 152.975 -246.575 c 4
 131.725 -249.125 113.875 -244.025 99.4248 -238.075 c 5
 99.4248 -388.525 l 6
 99.4248 -402.975 22.0752 -469.275 3.375 -469.275 c 4
248.175 366.275 m 4
 248.175 350.125 171.675 286.375 152.975 284.675 c 4
 131.725 282.125 113.875 287.225 99.4248 293.175 c 5
 99.4248 176.725 l 5
 141.075 155.475 l 6
 152.125 149.525 67.9746 72.1748 45.875 72.1748 c 4
 45.0254 72.1748 45.0254 73.0254 44.1748 73.0254 c 6
 1.6748 94.2754 l 6
 0.825195 94.2754 0.825195 95.125 0.825195 95.9746 c 6
 0.825195 287.225 l 6
 0.825195 301.675 62.875 353.525 86.6748 365.425 c 6
 150.425 396.875 l 6
 154.675 399.425 158.075 400.275 160.625 400.275 c 4
 164.025 400.275 191.225 362.875 244.775 368.825 c 4
 247.325 368.825 248.175 367.975 248.175 366.275 c 4
EndSplineSet
EndChar

StartChar: HufnagelCFClefChange
Encoding: 30 57380 30
Width: 209
VWidth: 875
Flags: W
HStem: 280.35 91.8008<81.1504 157.094>
VStem: 0.400391 78.1992<-369.593 -223.7 -160.8 -96.8243 193.65 285.676>
LayerCount: 2
Fore
SplineSet
2.09961 -408.15 m 4
 0.400391 -408.15 0.400391 -407.3 0.400391 -406.45 c 6
 0.400391 -100.45 l 6
 0.400391 -90.25 47.1504 -49.4502 68.4004 -38.4004 c 6
 119.4 -12.9004 l 6
 138.1 -3.5498 141.5 -41.7998 195.05 -35.8496 c 4
 197.6 -35.8496 197.6 -36.7002 197.6 -37.5498 c 4
 197.6 -48.5996 138.95 -100.45 121.95 -102.15 c 4
 104.95 -103.85 90.5 -101.3 78.5996 -96.2002 c 5
 78.5996 -160.8 l 5
 119.4 -140.4 l 6
 138.1 -131.05 141.5 -169.3 195.05 -163.35 c 4
 197.6 -163.35 197.6 -164.2 197.6 -165.05 c 4
 197.6 -176.1 138.95 -227.95 121.95 -229.65 c 4
 104.95 -231.35 90.5 -228.8 78.5996 -223.7 c 5
 78.5996 -343.55 l 6
 78.5996 -356.3 15.7002 -408.15 2.09961 -408.15 c 4
197.6 344.95 m 4
 197.6 332.2 136.4 282.05 121.95 280.35 c 4
 104.95 278.65 90.5 281.2 78.5996 286.3 c 5
 78.5996 193.65 l 5
 111.75 176.65 l 6
 121.1 171.55 51.4004 110.35 36.0996 110.35 c 6
 35.25 110.35 l 5
 1.25 127.35 l 6
 0.400391 127.35 0.400391 128.2 0.400391 129.05 c 6
 0.400391 282.05 l 6
 0.400391 292.25 47.1504 333.05 68.4004 344.1 c 6
 119.4 369.6 l 6
 122.8 371.3 126.2 372.15 127.9 372.15 c 4
 132.15 372.15 151.7 342.4 195.05 346.65 c 4
 197.6 346.65 197.6 345.8 197.6 344.95 c 4
EndSplineSet
EndChar

StartChar: MensuralFlatHole
Encoding: 31 57381 31
Width: 115
VWidth: 1005
Flags: W
HStem: 10.1592 119.682<16.4313 83.2775>
VStem: 15.9902 86.0195<16.9955 111.75>
LayerCount: 2
Fore
SplineSet
34.6904 129.841 m 4
 75.8301 129.841 102.01 95.2451 102.01 60.6504 c 4
 102.01 30.7295 84.2451 10.1592 53.3906 10.1592 c 4
 38.4297 10.1592 25.3408 15.7705 15.9902 22.3154 c 5
 15.9902 126.1 l 5
 17.8594 127.034 23.4707 129.841 34.6904 129.841 c 4
EndSplineSet
EndChar

StartChar: HufnagelFlatHole
Encoding: 32 57382 32
Width: 143
VWidth: 1003
Flags: W
LayerCount: 2
Fore
SplineSet
55.541 119.522 m 5
 106.966 98.9531 117.25 27.8926 82.6553 19.4775 c 5
 23.75 55.0078 l 5
 23.75 103.628 l 5
 55.541 119.522 l 5
EndSplineSet
EndChar

StartChar: MedicaeaFlatHole
Encoding: 33 57383 33
Width: 143
VWidth: 1003
Flags: W
HStem: -48.1367 208.847
VStem: 15.0547 87.8906<49.2417 150.208>
LayerCount: 2
Fore
SplineSet
15.0547 149.49 m 5
 24.0938 151.984 37.4951 160.71 53.3906 160.71 c 0
 81.4404 160.71 102.945 131.726 102.945 106.48 c 0
 102.945 60.1621 46.8164 6.58105 15.916 -48.1367 c 0
 15.5117 -48.6387 15.1953 -49.3496 15.1953 -48.8213 c 2
 15.0547 149.49 l 5
EndSplineSet
EndChar
